<svg width="30" height="30" viewBox="0 0 1025 768" fill="none" xmlns="http://www.w3.org/2000/svg">
<path d="M512.5 384L0.5 125V64C0.5 46 6.83333 30.8333 19.5 18.5C32.1667 6.16667 47.1667 0 64.5 0H960.5C977.833 0 992.833 6.16667 1005.5 18.5C1018.17 30.8333 1024.5 46 1024.5 64V125L512.5 384ZM480.5 448H544.5L1024.5 199V704C1024.5 721.333 1018.17 736.333 1005.5 749C992.833 761.667 977.833 768 960.5 768H64.5C47.1667 768 32.1667 761.667 19.5 749C6.83333 736.333 0.5 721.333 0.5 704V199L480.5 448Z" fill="#F9B019"/>
</svg>
