<svg width="180" height="180" viewBox="0 0 180 180" fill="none" xmlns="http://www.w3.org/2000/svg">
<path d="M90.0001 165C98.2501 165 105 158.25 105 150H75.0001C75.0001 158.25 81.7501 165 90.0001 165ZM135 120V82.5C135 59.475 122.775 40.2 101.25 35.1V30C101.25 23.775 96.2251 18.75 90.0001 18.75C83.7751 18.75 78.7501 23.775 78.7501 30V35.1C57.3001 40.2 45.0001 59.4 45.0001 82.5V120L30.0001 135V142.5H150V135L135 120ZM120 127.5H60.0001V82.5C60.0001 63.9 71.3251 48.75 90.0001 48.75C108.675 48.75 120 63.9 120 82.5V127.5ZM56.8501 30.6L46.1251 19.875C28.1251 33.6 16.2751 54.75 15.2251 78.75H30.2251C30.7564 69.2386 33.4263 59.9695 38.0361 51.6329C42.6459 43.2963 49.0768 36.1069 56.8501 30.6V30.6ZM149.775 78.75H164.775C163.65 54.75 151.8 33.6 133.875 19.875L123.225 30.6C130.965 36.134 137.367 43.3313 141.962 51.6635C146.556 59.9956 149.226 69.251 149.775 78.75Z" fill="white"/>
</svg>
