<svg width="200" height="150" viewBox="0 0 200 150" fill="none" xmlns="http://www.w3.org/2000/svg">
<g clip-path="url(#clip0_56_493)">
<path d="M98.2257 20.8541C103.331 25.8764 105.574 33.0218 104.069 39.4823C103.228 43.0664 101.722 46.3766 99.6749 49.1503C100.311 52.3463 100.142 57.5741 97.4684 63.1443C95.9148 66.4905 93.5681 69.1844 90.7368 70.8718C90.9799 73.1889 90.877 75.5403 90.4189 77.8118C90.2506 78.6108 89.9888 79.3755 89.6523 80.0946C91.6624 82.115 94.4579 85.7105 93.925 90.3676C93.7193 91.9656 93.1583 93.4609 92.2888 94.6822C92.8719 96.1181 93.2137 97.6819 93.294 99.2816C93.3742 100.881 93.1914 102.484 92.7563 103.996C92.7002 104.179 92.6254 104.407 92.5973 104.51C91.7839 106.884 90.6059 109.053 89.1193 110.879C88.923 112.386 86.7165 121.301 82.6775 127.11C73.1878 140.808 62.8379 141.949 61.5944 142.132C53.4136 143.661 54.5823 134.427 61.7066 124.154C65.8017 118.447 66.157 109.247 65.3342 104.864C61.2298 104.384 55.8351 102.661 53.5913 100.983C50.4311 98.6087 48.3649 96.9651 46.7194 94.3284C46.6446 94.2028 46.5885 94.0772 46.5231 93.9517C44.0174 93.4152 41.5491 92.6276 39.1463 91.6003C36.3134 90.2306 33.948 87.708 32.4427 84.4663C31.4212 82.0886 30.6965 79.5379 30.2923 76.8986C24.9631 73.7711 21.5412 69.4679 20.0546 66.0436C18.2595 61.923 17.6612 56.524 17.4648 53.8987C16.2307 52.6088 15.1275 51.1478 14.1738 49.5384C10.7987 43.6714 11.182 38.6377 11.7056 36.1493C12.8368 30.8188 15.8287 26.5498 20.5689 23.4565C26.8891 19.336 34.0134 17.5667 38.3329 17.7494C43.232 13.0581 50.4872 11.7454 55.6482 10.8208H55.8912C63.9599 9.61092 72.1313 9.87345 80.1345 11.6084C88.2779 13.5603 93.4949 16.2427 98.2257 20.8541Z" fill="#BDCCD1"/>
<path d="M44.8775 2.28286C47.4299 2.57964 50.7583 3.88087 50.2815 5.94687C49.8607 7.81883 45.8124 7.49923 44.5502 7.41933C38.5862 7.08829 32.6977 9.15317 27.7866 13.2977C25.6829 15.1583 23.4017 16.5851 22.2984 15.2724C21.1952 13.9598 23.6635 10.3985 25.2435 8.73198C30.1894 3.7439 36.7153 1.32406 44.8775 2.28286Z" fill="#0E2752"/>
<path d="M9.34965 79.3184C8.76064 77.9258 7.18057 73.0519 8.61104 71.9105C10.0415 70.769 11.9582 74.9809 12.5659 76.3621C15.6419 83.3362 21.3357 87.5367 26.0478 89.6141C28.5161 90.5958 31.4705 91.9997 31.1807 93.7918C30.7693 95.9491 26.6462 95.1159 24.6361 94.4995C18.3906 92.6275 13.2203 88.1531 9.34965 79.3184V79.3184Z" fill="#0E2752"/>
<path d="M104.901 80.7908C103.966 81.9322 100.638 85.2196 99.5907 83.7699C98.5436 82.3203 100.797 79.2042 101.685 78.0627C105.687 72.9149 106.968 67.4131 107.295 61.3065C107.407 58.1447 108.23 55.1199 109.436 55.1199C111.147 55.1199 111.53 58.6127 111.596 61.1923C111.801 69.0226 109.838 74.8896 104.901 80.7908V80.7908Z" fill="#0E2752"/>
<path d="M99.6747 49.1503C93.8119 56.4429 86.3421 61.5023 78.1708 63.715C70.551 65.9979 62.7442 67.2078 54.9 67.3448C53.8902 67.3448 51.45 67.3448 51.5155 66.2033C51.5809 65.0619 54.3203 64.7423 55.1992 64.5597C63.7072 62.779 79.2086 61.1353 92.3821 48.1001C103.134 37.4505 102.536 26.8922 99.254 21.9727C102.517 25.4655 104.434 30.4764 104.527 35.7726C104.518 40.6237 102.582 45.0411 99.6747 49.1503Z" fill="#0E2752"/>
<path d="M30.2925 76.8985C36.8156 80.2807 43.7353 82.384 50.7959 83.1308C56.817 83.5303 62.8474 83.0509 68.775 81.6812C72.1595 80.905 74.2351 80.4484 74.0855 79.3983C73.777 78.0628 70.2616 78.4623 67.5408 78.4737C57.7052 78.4737 49.085 77.7546 39.5672 74.3417C34.2941 72.4584 21.504 66.6484 17.7642 56.9805C19.045 69.9814 26.347 74.5244 30.2925 76.8985Z" fill="#0E2752"/>
<path d="M89.6524 80.0376C88.9979 80.9735 84.7345 85.6534 77.3671 88.5413C71.8341 90.5939 66.0954 91.7039 60.3137 91.84C59.734 91.84 57.0226 91.84 57.1161 90.8698C57.2096 89.8996 58.9019 89.8425 60.3884 89.637C65.8859 88.9179 71.2806 87.24 76.3948 84.6718C82.8272 81.6013 90.5032 75.4262 90.6902 70.8718C91.1109 74.0793 90.6901 78.1542 89.6524 80.0376V80.0376Z" fill="#0E2752"/>
<path d="M62.9316 104.704C75.3944 105.845 83.6033 100.07 84.1736 99.5674C84.7439 99.0652 86.6045 97.6955 86.0435 97.0448C85.6134 96.5883 83.9866 97.4329 83.2387 97.7868C82.3037 98.2205 73.1693 101.211 65.8019 100.88C58.6682 100.515 51.3476 97.9123 46.5513 93.9287C48.5427 97.7183 54.6292 101.919 57.2658 103.06C59.1076 103.882 61.0243 104.419 62.969 104.647" fill="#0E2752"/>
<path d="M93.2798 100.88C92.0643 104.476 87.8571 107.809 82.4531 111.256C79.5173 113.128 74.3003 115.308 70.2987 115.354C69.6723 115.354 68.2699 115.354 68.3447 116.244C68.4008 116.837 69.6162 117.146 70.1024 117.203C74.4779 117.625 78.8722 116.883 82.9953 115.034C85.1457 113.927 87.1839 112.523 89.0819 110.856C89.0819 110.856 92.9058 106.542 93.2798 100.88V100.88Z" fill="#0E2752"/>
<path d="M68.3544 23.719C63.5487 23.3309 51.7777 24.2897 51.759 30.2138C51.759 34.9393 62.3052 34.9393 62.3707 33.7408C62.4735 31.8917 58.8646 32.5994 58.6963 30.6361C58.5281 29.0723 63.3711 28.1934 67.3633 29.2321C71.3556 30.2709 75.46 34.5969 73.9828 37.7929C72.2905 41.4455 64.5491 47.107 49.1599 44.6415C38.3332 42.8837 26.852 31.1041 38.3332 17.7835C37.4076 17.7379 36.482 17.852 35.5844 18.1031C30.7601 19.2446 20.7187 25.7736 23.9069 35.2247C27.0951 44.6758 40.5022 51.3646 54.9472 51.4331C66.3442 51.5358 86.081 46.114 86.081 35.9666C86.0903 29.1408 80.1067 24.655 68.3544 23.719V23.719Z" fill="#0E2752"/>
<path d="M86.8382 116.426C81.4716 122.396 78.8911 128.195 73.0103 132.749C68.6627 136.173 59.7246 141.88 55.91 138.388C54.8722 137.44 54.9751 146.058 63.3896 145.236C66.0262 144.985 68.8497 141.059 71.2245 139.632C75.0391 137.349 78.8911 135.066 82.0793 131.642C85.2675 128.217 88.8483 125.341 89.0633 120.227C90.045 115.981 87.8853 115.365 86.8382 116.426V116.426Z" fill="#0E2752"/>
<path d="M47.131 149.882C49.3749 149.939 51.572 149.003 53.2923 147.245C54.3208 152.119 58.902 155.795 64.4649 155.795C70.0279 155.795 74.3754 152.302 75.5534 147.599C77.3205 150.75 80.8546 152.907 84.9029 152.907C90.7557 152.907 95.4959 148.489 95.4959 143.045C95.4959 137.6 90.8212 133.286 85.0899 133.194C83.1546 130.067 79.3119 127.921 74.8709 127.898C70.5702 127.898 66.8117 129.816 64.7735 132.749C62.8942 130.923 60.5475 129.953 58.1447 130.01C54.4049 130.01 51.17 132.167 49.833 135.226C48.9354 134.918 48.0099 134.769 47.0843 134.769C42.5965 134.769 38.9502 138.194 38.9502 142.337C38.9502 146.481 42.6432 149.882 47.131 149.882V149.882Z" fill="#0E2752"/>
</g>
<path d="M170.369 64.116C170.369 66.7803 172.119 68.9714 174.279 68.9714H194.876C197.706 68.9714 200 66.1097 200 62.6185C200 59.1272 197.706 56.2656 194.876 56.2656C194.876 51.6219 191.825 47.8574 188.061 47.8574C184.89 47.8574 182.225 50.5292 181.464 54.1473C180.789 53.5759 179.99 53.2707 179.172 53.2721C176.931 53.2721 175.114 55.5135 175.114 58.2781C175.115 58.6562 175.149 59.033 175.218 59.4015C174.911 59.3078 174.595 59.2604 174.279 59.2604C172.119 59.2605 170.369 61.4517 170.369 64.116ZM152.965 79.6304C153.177 79.6304 153.383 79.6557 153.584 79.7018C153.544 79.3369 153.522 78.9651 153.522 78.5865C153.522 74.0486 156.503 70.37 160.182 70.37C163.436 70.37 166.143 73.2503 166.725 77.0569C166.764 77.0556 166.802 77.0533 166.842 77.0533C169.277 77.0533 171.251 79.473 171.251 82.4774C171.251 85.4817 169.277 87.9014 166.842 87.9014H152.965C151.107 87.9014 149.6 86.0586 149.6 83.766C149.6 81.4734 151.107 79.6304 152.965 79.6304Z" fill="#0E2752"/>
<path d="M113.632 125.656C112.24 125.656 110.88 125.504 109.552 125.2C108.24 124.88 107.16 124.456 106.312 123.928L108.136 119.8C108.936 120.264 109.832 120.64 110.824 120.928C111.816 121.2 112.768 121.336 113.68 121.336C114.464 121.336 115.024 121.264 115.36 121.12C115.696 120.96 115.864 120.728 115.864 120.424C115.864 120.072 115.64 119.808 115.192 119.632C114.76 119.456 114.04 119.264 113.032 119.056C111.736 118.784 110.656 118.496 109.792 118.192C108.928 117.872 108.176 117.36 107.536 116.656C106.896 115.936 106.576 114.968 106.576 113.752C106.576 112.696 106.872 111.736 107.464 110.872C108.056 110.008 108.936 109.328 110.104 108.832C111.288 108.336 112.72 108.088 114.4 108.088C115.552 108.088 116.68 108.216 117.784 108.472C118.904 108.712 119.888 109.072 120.736 109.552L119.032 113.656C117.384 112.824 115.824 112.408 114.352 112.408C112.896 112.408 112.168 112.76 112.168 113.464C112.168 113.8 112.384 114.056 112.816 114.232C113.248 114.392 113.96 114.568 114.952 114.76C116.232 115 117.312 115.28 118.192 115.6C119.072 115.904 119.832 116.408 120.472 117.112C121.128 117.816 121.456 118.776 121.456 119.992C121.456 121.048 121.16 122.008 120.568 122.872C119.976 123.72 119.088 124.4 117.904 124.912C116.736 125.408 115.312 125.656 113.632 125.656ZM126.555 112.864H121.635V108.472H137.139V112.864H132.219V125.272H126.555V112.864ZM147.184 125.656C145.376 125.656 143.752 125.28 142.312 124.528C140.872 123.776 139.744 122.736 138.928 121.408C138.112 120.064 137.704 118.552 137.704 116.872C137.704 115.192 138.112 113.688 138.928 112.36C139.744 111.016 140.872 109.968 142.312 109.216C143.752 108.464 145.376 108.088 147.184 108.088C148.992 108.088 150.616 108.464 152.056 109.216C153.496 109.968 154.624 111.016 155.44 112.36C156.256 113.688 156.664 115.192 156.664 116.872C156.664 118.552 156.256 120.064 155.44 121.408C154.624 122.736 153.496 123.776 152.056 124.528C150.616 125.28 148.992 125.656 147.184 125.656ZM147.184 121.072C147.888 121.072 148.52 120.904 149.08 120.568C149.656 120.216 150.112 119.728 150.448 119.104C150.784 118.464 150.952 117.72 150.952 116.872C150.952 116.024 150.784 115.288 150.448 114.664C150.112 114.024 149.656 113.536 149.08 113.2C148.52 112.848 147.888 112.672 147.184 112.672C146.48 112.672 145.84 112.848 145.264 113.2C144.704 113.536 144.256 114.024 143.92 114.664C143.584 115.288 143.416 116.024 143.416 116.872C143.416 117.72 143.584 118.464 143.92 119.104C144.256 119.728 144.704 120.216 145.264 120.568C145.84 120.904 146.48 121.072 147.184 121.072ZM165.92 121.048H164.384V125.272H158.72V108.472H166.808C168.36 108.472 169.712 108.728 170.864 109.24C172.016 109.752 172.904 110.488 173.528 111.448C174.152 112.408 174.464 113.528 174.464 114.808C174.464 116.008 174.192 117.056 173.648 117.952C173.104 118.848 172.32 119.56 171.296 120.088L174.824 125.272H168.776L165.92 121.048ZM168.752 114.808C168.752 114.184 168.56 113.704 168.176 113.368C167.792 113.016 167.216 112.84 166.448 112.84H164.384V116.776H166.448C167.216 116.776 167.792 116.608 168.176 116.272C168.56 115.92 168.752 115.432 168.752 114.808ZM191.602 125.272L191.554 117.616L187.906 123.76H185.41L181.762 117.88V125.272H176.602V108.472H181.258L186.73 117.424L192.058 108.472H196.714L196.762 125.272H191.602Z" fill="#632390"/>
<path d="M114.799 146.011C113.245 146.011 111.845 145.689 110.599 145.045C109.353 144.387 108.373 143.477 107.659 142.315C106.959 141.139 106.609 139.809 106.609 138.325C106.609 136.841 106.959 135.518 107.659 134.356C108.373 133.18 109.353 132.27 110.599 131.626C111.845 130.968 113.245 130.639 114.799 130.639C116.227 130.639 117.501 130.891 118.621 131.395C119.741 131.899 120.665 132.627 121.393 133.579L118.264 136.372C117.354 135.224 116.283 134.65 115.051 134.65C114.015 134.65 113.182 134.986 112.552 135.658C111.922 136.316 111.607 137.205 111.607 138.325C111.607 139.445 111.922 140.341 112.552 141.013C113.182 141.671 114.015 142 115.051 142C116.283 142 117.354 141.426 118.264 140.278L121.393 143.071C120.665 144.023 119.741 144.751 118.621 145.255C117.501 145.759 116.227 146.011 114.799 146.011ZM137.314 130.975V145.675H132.358V140.257H127.78V145.675H122.824V130.975H127.78V136.183H132.358V130.975H137.314ZM149.719 143.113H144.133L143.146 145.675H138.106L144.532 130.975H149.404L155.83 145.675H150.706L149.719 143.113ZM148.354 139.543L146.926 135.847L145.498 139.543H148.354ZM162.102 146.011C160.884 146.011 159.694 145.878 158.532 145.612C157.384 145.332 156.439 144.961 155.697 144.499L157.293 140.887C157.993 141.293 158.777 141.622 159.645 141.874C160.513 142.112 161.346 142.231 162.144 142.231C162.83 142.231 163.32 142.168 163.614 142.042C163.908 141.902 164.055 141.699 164.055 141.433C164.055 141.125 163.859 140.894 163.467 140.74C163.089 140.586 162.459 140.418 161.577 140.236C160.443 139.998 159.498 139.746 158.742 139.48C157.986 139.2 157.328 138.752 156.768 138.136C156.208 137.506 155.928 136.659 155.928 135.595C155.928 134.671 156.187 133.831 156.705 133.075C157.223 132.319 157.993 131.724 159.015 131.29C160.051 130.856 161.304 130.639 162.774 130.639C163.782 130.639 164.769 130.751 165.735 130.975C166.715 131.185 167.576 131.5 168.318 131.92L166.827 135.511C165.385 134.783 164.02 134.419 162.732 134.419C161.458 134.419 160.821 134.727 160.821 135.343C160.821 135.637 161.01 135.861 161.388 136.015C161.766 136.155 162.389 136.309 163.257 136.477C164.377 136.687 165.322 136.932 166.092 137.212C166.862 137.478 167.527 137.919 168.087 138.535C168.661 139.151 168.948 139.991 168.948 141.055C168.948 141.979 168.689 142.819 168.171 143.575C167.653 144.317 166.876 144.912 165.84 145.36C164.818 145.794 163.572 146.011 162.102 146.011ZM182.645 141.937V145.675H170.423V130.975H182.372V134.713H175.295V136.435H181.511V140.005H175.295V141.937H182.645ZM190.852 141.979H189.508V145.675H184.552V130.975H191.629C192.987 130.975 194.17 131.199 195.178 131.647C196.186 132.095 196.963 132.739 197.509 133.579C198.055 134.419 198.328 135.399 198.328 136.519C198.328 137.569 198.09 138.486 197.614 139.27C197.138 140.054 196.452 140.677 195.556 141.139L198.643 145.675H193.351L190.852 141.979ZM193.33 136.519C193.33 135.973 193.162 135.553 192.826 135.259C192.49 134.951 191.986 134.797 191.314 134.797H189.508V138.241H191.314C191.986 138.241 192.49 138.094 192.826 137.8C193.162 137.492 193.33 137.065 193.33 136.519Z" fill="#F9B019"/>
<defs>
<clipPath id="clip0_56_493">
<rect width="119.673" height="146.104" fill="white"/>
</clipPath>
</defs>
</svg>
